<svg width="1200" height="750" viewBox="0 0 1200 750" fill="none" xmlns="http://www.w3.org/2000/svg">
<g clip-path="url(#clip0_35_11)">
<path d="M208.073 499.424C208.924 535.156 199.657 614.924 155.79 648.14" stroke="black"/>
<path d="M155.79 648.14C146.491 659.735 132.016 689.884 148.512 714.689" stroke="black"/>
<path d="M148.964 714.689C153.128 721.701 160.206 738.58 155.21 750" stroke="black"/>
<path d="M155.79 750H1043.82V722.402C1058.18 707.777 1073.77 662.075 1024.11 626.41" stroke="black"/>
<path d="M1023.87 626.41C1012.11 610.417 989.595 571.729 993.627 544.922" stroke="black"/>
<path d="M994.022 544.922C994.546 529.756 994.651 499.424 990.875 499.424" stroke="black"/>
<path d="M991.5 498C991.5 499.431 990.872 500.868 989.595 502.303C988.315 503.741 986.404 505.153 983.903 506.513C978.9 509.234 971.628 511.7 962.599 513.776C944.549 517.928 919.588 520.5 892 520.5C864.412 520.5 839.451 517.928 821.401 513.776C812.372 511.7 805.1 509.234 800.097 506.513C797.596 505.153 795.685 503.741 794.405 502.303C793.128 500.868 792.5 499.431 792.5 498C792.5 496.569 793.128 495.132 794.405 493.697C795.685 492.259 797.596 490.847 800.097 489.487C805.1 486.766 812.372 484.3 821.401 482.224C839.451 478.072 864.412 475.5 892 475.5C919.588 475.5 944.549 478.072 962.599 482.224C971.628 484.3 978.9 486.766 983.903 489.487C986.404 490.847 988.315 492.259 989.595 493.697C990.872 495.132 991.5 496.569 991.5 498Z" fill="#FFF9D2" stroke="black"/>
<path d="M923.5 497C923.5 497.326 923.358 497.684 923.007 498.078C922.653 498.475 922.108 498.882 921.365 499.285C919.879 500.092 917.695 500.833 914.955 501.462C909.482 502.719 901.896 503.5 893.5 503.5C885.104 503.5 877.518 502.719 872.045 501.462C869.305 500.833 867.121 500.092 865.635 499.285C864.892 498.882 864.347 498.475 863.993 498.078C863.642 497.684 863.5 497.326 863.5 497C863.5 496.674 863.642 496.316 863.993 495.922C864.347 495.525 864.892 495.118 865.635 494.715C867.121 493.908 869.305 493.167 872.045 492.538C877.518 491.281 885.104 490.5 893.5 490.5C901.896 490.5 909.482 491.281 914.955 492.538C917.695 493.167 919.879 493.908 921.365 494.715C922.108 495.118 922.653 495.525 923.007 495.922C923.358 496.316 923.5 496.674 923.5 497Z" fill="white" stroke="black"/>
<path d="M406.5 498C406.5 499.431 405.872 500.868 404.595 502.303C403.315 503.741 401.404 505.153 398.903 506.513C393.9 509.234 386.628 511.7 377.599 513.776C359.549 517.928 334.588 520.5 307 520.5C279.412 520.5 254.451 517.928 236.401 513.776C227.372 511.7 220.1 509.234 215.097 506.513C212.596 505.153 210.685 503.741 209.405 502.303C208.128 500.868 207.5 499.431 207.5 498C207.5 496.569 208.128 495.132 209.405 493.697C210.685 492.259 212.596 490.847 215.097 489.487C220.1 486.766 227.372 484.3 236.401 482.224C254.451 478.072 279.412 475.5 307 475.5C334.588 475.5 359.549 478.072 377.599 482.224C386.628 484.3 393.9 486.766 398.903 489.487C401.404 490.847 403.315 492.259 404.595 493.697C405.872 495.132 406.5 496.569 406.5 498Z" fill="#FFF9D2" fill-opacity="0.74" stroke="black"/>
<path d="M338.5 497C338.5 497.326 338.358 497.684 338.007 498.078C337.653 498.475 337.108 498.882 336.365 499.285C334.879 500.092 332.695 500.833 329.955 501.462C324.482 502.719 316.896 503.5 308.5 503.5C300.104 503.5 292.518 502.719 287.045 501.462C284.305 500.833 282.121 500.092 280.635 499.285C279.892 498.882 279.347 498.475 278.993 498.078C278.642 497.684 278.5 497.326 278.5 497C278.5 496.674 278.642 496.316 278.993 495.922C279.347 495.525 279.892 495.118 280.635 494.715C282.121 493.908 284.305 493.167 287.045 492.538C292.518 491.281 300.104 490.5 308.5 490.5C316.896 490.5 324.482 491.281 329.955 492.538C332.695 493.167 334.879 493.908 336.365 494.715C337.108 495.118 337.653 495.525 338.007 495.922C338.358 496.316 338.5 496.674 338.5 497Z" fill="white" stroke="black"/>
<rect x="199.5" y="462.5" width="800" height="31" fill="#FFF9D2" stroke="black"/>
<rect x="161.5" y="470.5" width="876" height="14" fill="white" fill-opacity="0.74" stroke="black"/>
<rect x="161.5" y="451.5" width="22" height="56" fill="#FFF9D2" stroke="black"/>
<rect x="1015.5" y="451.5" width="22" height="56" fill="#FFF9D2" stroke="black"/>
<path d="M582.921 475.75L600.5 453.8L618.079 475.75H582.921Z" fill="#FFF9D2" stroke="black"/>
<rect x="222.714" y="534.184" width="746.446" height="203.024" rx="49.5" fill="#FFF9D2" stroke="black"/>
</g>
<defs>
<clipPath id="clip0_35_11">
<rect width="1200" height="750" fill="white"/>
</clipPath>
</defs>
</svg>
